<svg xmlns="http://www.w3.org/2000/svg" xmlns:xlink="http://www.w3.org/1999/xlink" width="1080" zoomAndPan="magnify" viewBox="0 0 810 809.999993" height="1080" preserveAspectRatio="xMidYMid meet" version="1.0"><path fill="#b3b3b3" d="M 207.863281 494.613281 C 192.558594 491.675781 172.050781 486.964844 147.289062 488.652344 C -50.652344 502.132812 233.867188 568.089844 249.902344 520.996094 C 256.617188 501.28125 221.402344 492.613281 207.863281 494.613281 Z M 207.863281 494.613281 " fill-opacity="1" fill-rule="nonzero"/><path fill="#ff5555" d="M 480.785156 646.0625 C 501.847656 691.621094 444.0625 676.6875 435.210938 682.003906 C 420.351562 690.925781 476.222656 686.148438 485.34375 688.914062 C 518.933594 699.101562 567.878906 715.132812 563.585938 702.738281 C 562.089844 698.425781 512.007812 692.234375 511.171875 686.152344 C 509.457031 673.679688 592.730469 690.117188 586.375 678.546875 C 576.484375 660.550781 522.535156 686.8125 508.894531 674.402344 C 505.800781 671.585938 540.003906 669.53125 536.238281 666.109375 C 525.179688 656.042969 506.414062 673.53125 499.777344 665.417969 C 497.753906 662.941406 489.882812 621.257812 480.789062 646.066406 Z M 480.785156 646.0625 " fill-opacity="1" fill-rule="nonzero"/><path fill="#999999" d="M 387.316406 614.433594 C 444.621094 661.644531 464.847656 670.074219 474.960938 661.644531 C 485.074219 653.214844 517.097656 648.15625 517.097656 648.15625 C 517.097656 648.15625 527.210938 619.488281 513.726562 611.058594 C 500.242188 602.628906 392.371094 611.058594 387.316406 614.433594 Z M 387.316406 614.433594 " fill-opacity="1" fill-rule="nonzero"/><path fill="#666666" d="M 652.496094 539.03125 C 669.078125 519.378906 682.507812 452.355469 676.933594 440.390625 C 665.375 456.5 596.035156 566.074219 559.792969 587.929688 C 582.492188 591.289062 637.820312 552.984375 652.496094 539.03125 Z M 652.496094 539.03125 " fill-opacity="1" fill-rule="nonzero"/><path fill="#b3b3b3" d="M 733.605469 170.082031 C 722.28125 188.5625 697.277344 298.496094 698.671875 331.78125 C 699.9375 362.03125 702.917969 379.320312 699.042969 406.15625 C 689.9375 469.191406 678.738281 490.726562 614.378906 555.113281 C 587.203125 582.300781 559.640625 596.542969 532.925781 608.910156 C 510.414062 619.332031 447.753906 646.019531 373.863281 638.863281 C 299.96875 631.710938 198.464844 620.210938 176.023438 617.402344 C 32.984375 599.492188 23.558594 563.097656 23.90625 562.765625 C 38.480469 548.878906 110.773438 534.640625 156.253906 518.765625 C 183.632812 509.210938 221.847656 501.125 204.914062 491.835938 C 188.589844 482.882812 122.484375 469.824219 145.035156 464.789062 C 192.886719 454.101562 197.121094 451.5625 206.414062 448.097656 C 242.902344 434.488281 239.34375 431.789062 270.550781 415.460938 C 304.285156 397.8125 295.800781 395.476562 313.082031 387.886719 C 367.746094 363.871094 426.207031 292.699219 493.050781 254.941406 C 541.660156 227.484375 577.972656 188.351562 590.199219 170.082031 C 596.632812 160.472656 613.808594 139.03125 617 116.632812 C 620.78125 90.113281 637.195312 63.625 669.441406 59.402344 C 700.578125 55.324219 725.453125 57.425781 740.949219 73.710938 C 755.085938 88.570312 751.324219 102.347656 750.484375 119.019531 C 748.59375 156.441406 746.703125 149.21875 733.609375 170.082031 Z M 733.605469 170.082031 " fill-opacity="1" fill-rule="nonzero"/><path fill="#6c5353" d="M 738.875 162.902344 C 741.835938 212.828125 701.308594 302.140625 700.742188 305.957031 C 694.179688 349.929688 583.40625 206.074219 501.449219 251.132812 C 544.101562 223.675781 564.605469 200.316406 588.9375 172.527344 C 596.558594 163.824219 605.453125 149.71875 614.546875 117.882812 C 621.902344 92.125 635.769531 65.914062 667.582031 59.164062 C 696.632812 53 728.058594 57.835938 743.550781 74.117188 C 757.6875 88.976562 751.851562 104.195312 751.007812 120.863281 C 749.117188 158.285156 751.976562 142.039062 738.886719 162.902344 Z M 738.875 162.902344 " fill-opacity="1" fill-rule="nonzero"/><path fill="#ffffff" d="M 699.28125 117.0625 C 699.28125 126.761719 690.167969 134.621094 678.925781 134.621094 C 667.683594 134.621094 658.570312 126.761719 658.570312 117.0625 C 658.570312 107.367188 667.683594 99.507812 678.925781 99.507812 C 690.167969 99.507812 699.28125 107.367188 699.28125 117.0625 Z M 699.28125 117.0625 " fill-opacity="1" fill-rule="evenodd"/><path fill="#000000" d="M 697.066406 118.929688 C 697.066406 125.164062 691.933594 130.21875 685.609375 130.21875 C 679.28125 130.21875 674.152344 125.164062 674.152344 118.929688 C 674.152344 112.699219 679.28125 107.644531 685.609375 107.644531 C 691.933594 107.644531 697.066406 112.699219 697.066406 118.929688 Z M 697.066406 118.929688 " fill-opacity="1" fill-rule="evenodd"/><path fill="#ffffff" d="M 688.414062 113.722656 C 688.414062 118.472656 683.933594 122.324219 678.410156 122.324219 C 672.886719 122.324219 668.410156 118.472656 668.410156 113.722656 C 668.410156 108.96875 672.886719 105.117188 678.410156 105.117188 C 683.933594 105.117188 688.414062 108.96875 688.414062 113.722656 Z M 688.414062 113.722656 " fill-opacity="1" fill-rule="evenodd"/><path fill="#ffffff" d="M 756.046875 116.375 C 756.046875 124.933594 751.917969 131.867188 746.824219 131.867188 C 741.726562 131.867188 737.597656 124.929688 737.597656 116.375 C 737.597656 107.820312 741.726562 100.882812 746.824219 100.882812 C 751.917969 100.882812 756.046875 107.820312 756.046875 116.375 Z M 756.046875 116.375 " fill-opacity="1" fill-rule="evenodd"/><path fill="#000000" d="M 750.335938 119.773438 C 750.335938 124.507812 747.910156 128.347656 744.917969 128.347656 C 741.921875 128.347656 739.496094 124.507812 739.496094 119.773438 C 739.496094 115.042969 741.921875 111.203125 744.917969 111.203125 C 747.910156 111.203125 750.335938 115.042969 750.335938 119.773438 Z M 750.335938 119.773438 " fill-opacity="1" fill-rule="evenodd"/><path fill="#ffffff" d="M 752.921875 116.898438 C 752.921875 120.496094 750.953125 123.414062 748.527344 123.414062 C 746.101562 123.414062 744.136719 120.496094 744.136719 116.898438 C 744.136719 113.300781 746.101562 110.386719 748.527344 110.386719 C 750.953125 110.386719 752.921875 113.300781 752.921875 116.898438 Z M 752.921875 116.898438 " fill-opacity="1" fill-rule="evenodd"/><path fill="#aa4400" d="M 737.390625 159.632812 C 729.632812 166.011719 699.046875 159.921875 699.046875 150.992188 C 699.046875 150.289062 698.207031 150.464844 698.835938 150.78125 C 701.039062 151.882812 704.292969 151.929688 706.84375 152.675781 C 713.316406 154.574219 722.988281 153.269531 727.910156 154.363281 C 731.074219 155.066406 735.40625 157.429688 737.390625 159.632812 Z M 737.390625 159.632812 " fill-opacity="1" fill-rule="nonzero"/><path fill="#ffffff" d="M 741.613281 128.015625 C 739.410156 115.714844 714.515625 115.039062 708.535156 120.640625 C 707.464844 121.640625 702.699219 124.910156 704.742188 125.910156 C 708.371094 127.683594 719.902344 123.699219 725.179688 123.589844 C 731.734375 123.457031 737.90625 126.871094 741.824219 128.226562 " fill-opacity="1" fill-rule="nonzero"/><path fill="#999999" d="M 570.320312 511.207031 C 501.214844 536.5 427.054688 573.59375 408.515625 570.222656 C 389.972656 566.847656 356.265625 553.359375 356.265625 553.359375 C 403.707031 594.128906 552.851562 589.300781 570.320312 511.203125 Z M 570.320312 511.207031 " fill-opacity="1" fill-rule="nonzero"/><path fill="#ececec" d="M 320.023438 627.550781 C 363.84375 668.863281 380.703125 677.011719 395.027344 674.765625 C 410.035156 672.410156 437.164062 661.273438 437.164062 661.273438 C 437.164062 661.273438 447.277344 632.609375 433.792969 624.179688 C 420.308594 615.75 330.980469 619.964844 320.023438 627.550781 Z M 320.023438 627.550781 " fill-opacity="1" fill-rule="nonzero"/><path fill="#ff8080" d="M 389.96875 673.070312 C 413.332031 728.640625 349.226562 710.429688 339.402344 716.914062 C 322.917969 727.792969 384.902344 721.96875 395.023438 725.34375 C 432.289062 737.769531 486.589844 757.324219 481.828125 742.207031 C 480.167969 736.945312 424.605469 729.390625 423.679688 721.972656 C 421.773438 706.757812 514.164062 726.808594 507.109375 712.699219 C 496.136719 690.742188 436.285156 722.78125 421.148438 707.640625 C 417.71875 704.207031 455.664062 701.699219 451.488281 697.523438 C 439.21875 685.246094 418.402344 706.574219 411.035156 696.679688 C 408.792969 693.660156 400.058594 642.816406 389.96875 673.074219 Z M 389.96875 673.070312 " fill-opacity="1" fill-rule="nonzero"/><path fill="#483737" d="M 738.660156 160.351562 C 728.339844 162.101562 719.617188 163.9375 712.441406 160.351562 C 709.03125 159.734375 702.195312 157.125 700.222656 154.386719 C 700.222656 160.742188 711.703125 169.445312 715.71875 173.464844 C 724.304688 179.285156 729.199219 186.207031 730.316406 195.226562 C 734.058594 195.261719 734.613281 193.03125 736.871094 186.582031 C 738.480469 170.386719 739.789062 170.179688 738.660156 160.351562 Z M 738.660156 160.351562 " fill-opacity="1" fill-rule="nonzero"/><path fill="#c8b7b7" d="M 506.550781 248.285156 C 575.75 227.492188 624.683594 274.535156 677.875 309.691406 C 680.347656 310.925781 688.164062 316.386719 694.261719 313.566406 C 694.574219 313.417969 697.042969 315.34375 699.625 309.988281 C 698.753906 316.242188 699.460938 325.015625 698.730469 331.449219 C 696.289062 337.359375 683.050781 332.480469 668.9375 329.066406 C 639.121094 320.507812 615.761719 293.394531 590.574219 277.199219 C 565.46875 266.015625 534.261719 249.566406 506.550781 248.285156 Z M 506.550781 248.285156 " fill-opacity="1" fill-rule="nonzero"/><path fill="#6c5353" d="M 376.488281 556.726562 C 312.324219 579.644531 244.257812 589.082031 172.539062 576.960938 C 163.765625 575.476562 109.5625 565.324219 115.234375 555.039062 C 133.234375 522.398438 341.640625 541.171875 376.476562 556.726562 Z M 376.488281 556.726562 " fill-opacity="1" fill-rule="nonzero"/><path fill="#483737" d="M 361.386719 555.609375 C 200.492188 553.222656 185.054688 559.472656 139.769531 542.78125 C 94.488281 526.089844 108.785156 523.703125 138.578125 516.550781 C 168.375 509.398438 196.976562 507.011719 196.976562 507.011719 C 196.976562 507.011719 164.050781 504.347656 165.992188 492.707031 C 167.183594 485.550781 192.425781 473.921875 207.007812 471.738281 C 219.625 469.847656 179.761719 457.238281 183.160156 453.492188 C 187.167969 449.070312 260.699219 422.914062 260.699219 422.914062 C 260.699219 422.914062 251.394531 424.816406 247.035156 450.972656 C 242.511719 478.125 251.800781 492.179688 268.199219 509.890625 C 284.246094 527.222656 356.625 553.222656 361.390625 555.609375 Z M 361.386719 555.609375 " fill-opacity="1" fill-rule="nonzero"/><path fill="#cccccc" d="M 561.679688 522.507812 C 504.441406 577.75 391.953125 580.742188 324.292969 548.328125 C 265.402344 524.980469 220.386719 493.277344 243.152344 428.375 C 322.566406 364.113281 385.527344 319.054688 481.820312 328.160156 C 562.484375 330.96875 609.921875 460.863281 561.671875 522.507812 Z M 561.679688 522.507812 " fill-opacity="1" fill-rule="nonzero"/><path fill="#ff7f2a" d="M 714.214844 122.125 C 731.679688 119.351562 736.097656 122.988281 747.714844 133.507812 C 750.917969 139.136719 751.714844 144.128906 752.5625 150.367188 C 753.402344 158.800781 753.191406 164.28125 747.714844 165.121094 C 739.140625 166.441406 741.816406 159.222656 731.703125 155.425781 C 723.65625 152.410156 719.90625 155.003906 710.214844 153.742188 C 700.523438 152.476562 697.574219 151.632812 695.464844 146.152344 C 688.683594 132.378906 702.261719 126.121094 714.21875 122.125 Z M 714.214844 122.125 " fill-opacity="1" fill-rule="nonzero"/><path fill="#aa4400" d="M 714.851562 132.441406 C 712.574219 132.335938 712.140625 133.566406 711.6875 134.546875 C 709.542969 139.222656 722.433594 142.910156 722.433594 141.292969 C 722.433594 140.035156 717.050781 137.382812 716.324219 136.65625 C 716.050781 136.382812 721.84375 133.839844 714.851562 132.441406 Z M 714.851562 132.441406 " fill-opacity="1" fill-rule="nonzero"/><path fill="#ffccaa" d="M 734.1875 125.179688 C 740.445312 128.457031 744.320312 133.523438 746.402344 140.382812 C 748.324219 146.695312 749.085938 157.371094 749.085938 157.371094 C 744.65625 148.660156 740.40625 139.132812 731.503906 134.421875 C 723.035156 130.183594 719.585938 126.074219 719.585938 126.074219 C 719.585938 126.074219 724.652344 122.796875 734.1875 125.179688 Z M 734.1875 125.179688 " fill-opacity="1" fill-rule="nonzero"/></svg>