<svg xmlns="http://www.w3.org/2000/svg" xmlns:xlink="http://www.w3.org/1999/xlink" width="1080" zoomAndPan="magnify" viewBox="0 0 810 809.999993" height="1080" preserveAspectRatio="xMidYMid meet" version="1.0"><defs><clipPath id="7e4fda5c66"><path d="M 21.535156 27.714844 L 788.785156 27.714844 L 788.785156 810 L 21.535156 810 Z M 21.535156 27.714844 " clip-rule="nonzero"/></clipPath><clipPath id="e41e6b6901"><path d="M 21.535156 185 L 592 185 L 592 810 L 21.535156 810 Z M 21.535156 185 " clip-rule="nonzero"/></clipPath></defs><g clip-path="url(#7e4fda5c66)"><path fill="#f7b731" d="M 788.386719 411.484375 C 788.386719 412.839844 788.386719 414.195312 788.386719 415.550781 C 788.386719 416.570312 788.386719 417.757812 788.386719 418.773438 C 788.386719 419.285156 788.386719 419.621094 788.386719 420.132812 C 788.386719 421.148438 788.386719 422.335938 788.214844 423.351562 C 788.214844 424.371094 788.214844 425.558594 788.046875 426.574219 C 787.875 429.457031 787.875 432.171875 787.707031 435.054688 C 787.707031 435.222656 787.707031 435.394531 787.707031 435.5625 C 787.707031 436.582031 787.535156 437.429688 787.535156 438.445312 C 787.535156 439.632812 787.367188 440.820312 787.195312 442.007812 C 787.027344 443.363281 787.027344 444.722656 786.859375 446.078125 C 786.519531 449.128906 786.347656 452.183594 786.007812 455.234375 C 786.007812 455.40625 786.007812 455.574219 786.007812 455.742188 C 785.839844 457.269531 785.667969 458.796875 785.5 460.324219 C 785.332031 462.019531 784.992188 463.882812 784.820312 465.578125 C 784.480469 468.292969 784.144531 470.835938 783.632812 473.378906 C 783.632812 473.71875 783.464844 474.058594 783.464844 474.398438 C 783.292969 475.078125 783.292969 475.753906 783.125 476.433594 C 782.953125 477.28125 782.785156 478.128906 782.617188 478.976562 C 782.617188 479.316406 782.445312 479.824219 782.445312 480.164062 C 782.277344 481.519531 781.9375 482.707031 781.765625 484.066406 C 781.429688 485.589844 781.089844 487.117188 780.917969 488.8125 C 780.238281 491.867188 779.5625 495.085938 778.882812 498.140625 C 778.542969 499.667969 778.203125 501.191406 777.863281 502.71875 C 777.523438 504.246094 777.1875 505.773438 776.675781 507.296875 C 775.660156 511.539062 774.472656 515.605469 773.28125 519.675781 C 773.113281 520.355469 772.773438 521.203125 772.605469 522.050781 C 770.398438 529.34375 768.023438 536.636719 765.308594 543.757812 C 764.800781 545.113281 764.289062 546.472656 763.78125 547.828125 C 762.59375 550.882812 761.40625 553.765625 760.21875 556.648438 C 759.707031 558.003906 759.03125 559.359375 758.519531 560.71875 C 758.011719 561.902344 757.503906 563.261719 756.992188 564.449219 C 756.824219 564.785156 756.652344 565.296875 756.484375 565.636719 C 755.464844 567.839844 754.449219 570.042969 753.429688 572.25 C 753.089844 572.925781 752.75 573.605469 752.414062 574.285156 C 751.902344 575.300781 751.394531 576.320312 750.886719 577.335938 C 750.546875 578.183594 750.035156 579.03125 749.699219 579.878906 C 749.359375 580.726562 748.847656 581.40625 748.507812 582.253906 C 748 583.441406 747.320312 584.628906 746.644531 585.816406 C 745.964844 587.171875 745.285156 588.527344 744.4375 589.886719 C 743.929688 590.734375 743.589844 591.582031 743.078125 592.429688 C 742.570312 593.445312 742.0625 594.464844 741.382812 595.480469 C 740.535156 596.839844 739.855469 598.363281 739.007812 599.722656 C 737.988281 601.585938 736.972656 603.453125 735.785156 605.148438 C 735.273438 606.164062 734.59375 607.183594 734.085938 608.199219 C 732.730469 610.40625 731.371094 612.609375 730.015625 614.8125 C 728.65625 616.847656 727.300781 619.054688 725.941406 621.089844 C 725.261719 622.105469 724.585938 623.125 723.90625 624.140625 C 723.398438 624.988281 722.71875 625.835938 722.207031 626.683594 C 721.191406 628.042969 720.171875 629.566406 719.324219 630.925781 C 718.816406 631.773438 718.136719 632.449219 717.628906 633.300781 C 716.269531 635.335938 714.742188 637.367188 713.214844 639.234375 C 643.308594 733.355469 531.316406 794.402344 405.074219 794.402344 C 382.507812 794.402344 360.277344 792.371094 338.726562 788.636719 C 337.371094 788.46875 336.011719 788.128906 334.65625 787.960938 C 333.976562 787.789062 333.128906 787.621094 332.449219 787.453125 C 329.734375 786.941406 326.851562 786.433594 324.136719 785.753906 C 323.117188 785.585938 322.269531 785.417969 321.25 785.078125 C 319.554688 784.738281 317.855469 784.230469 316.160156 783.890625 C 314.464844 783.550781 312.597656 783.042969 310.898438 782.535156 L 280.867188 831.035156 L 280.867188 446.078125 L 391.5 598.875 L 506.542969 435.5625 L 506.542969 598.703125 L 592.234375 598.703125 L 592.234375 185.765625 L 392.347656 462.359375 L 324.304688 366.035156 L 197.382812 186.105469 L 197.382812 734.03125 C 193.140625 731.320312 189.070312 728.605469 184.996094 725.722656 C 183.976562 725.042969 182.960938 724.367188 181.941406 723.519531 C 180.925781 722.839844 179.90625 721.992188 178.886719 721.3125 C 177.871094 720.636719 176.851562 719.789062 175.832031 719.109375 C 170.066406 714.871094 164.464844 710.460938 159.035156 705.882812 C 158.355469 705.371094 157.675781 704.863281 157.167969 704.183594 C 154.792969 702.152344 152.246094 699.945312 149.871094 697.910156 C 148.855469 697.0625 148.007812 696.214844 147.15625 695.367188 C 146.308594 694.519531 145.460938 693.839844 144.613281 692.992188 C 140.878906 689.601562 137.316406 686.039062 133.753906 682.480469 C 132.902344 681.628906 132.054688 680.78125 131.207031 679.765625 C 129.511719 678.070312 127.8125 676.203125 126.117188 674.339844 C 125.269531 673.492188 124.421875 672.472656 123.570312 671.625 C 122.554688 670.609375 121.707031 669.589844 120.855469 668.574219 C 120.179688 667.726562 119.328125 666.875 118.652344 666.027344 C 118.140625 665.519531 117.632812 664.839844 117.125 664.332031 C 116.445312 663.65625 115.765625 662.808594 115.085938 661.957031 C 114.578125 661.449219 114.238281 660.941406 113.730469 660.433594 C 112.882812 659.414062 112.035156 658.566406 111.355469 657.550781 C 110.507812 656.53125 109.828125 655.683594 108.980469 654.667969 C 108.128906 653.648438 107.453125 652.800781 106.601562 651.785156 C 105.753906 650.765625 105.078125 649.917969 104.226562 648.902344 C 103.378906 647.882812 102.699219 646.867188 101.851562 646.019531 C 100.324219 643.984375 98.796875 642.117188 97.269531 640.082031 C 96.59375 639.234375 95.914062 638.386719 95.40625 637.539062 C 92.351562 633.46875 89.464844 629.230469 86.582031 624.988281 C 86.070312 624.140625 85.394531 623.292969 84.882812 622.445312 C 78.605469 612.949219 72.667969 603.113281 67.238281 592.9375 C 66.050781 590.902344 65.03125 588.699219 63.84375 586.492188 C 62.148438 583.101562 60.449219 579.710938 58.753906 576.320312 C 58.414062 575.640625 58.074219 574.960938 57.734375 574.285156 C 56.886719 572.585938 56.207031 571.0625 55.53125 569.367188 C 54.511719 567.160156 53.664062 565.125 52.644531 562.921875 C 51.117188 559.359375 49.589844 555.628906 48.234375 552.066406 C 48.234375 551.898438 48.0625 551.730469 48.0625 551.730469 C 47.554688 550.542969 47.046875 549.183594 46.707031 548 C 46.195312 546.640625 45.6875 545.285156 45.179688 543.929688 C 44.667969 542.570312 44.160156 541.214844 43.652344 539.859375 C 42.292969 535.957031 40.9375 532.058594 39.75 528.15625 C 39.578125 527.648438 39.410156 527.140625 39.238281 526.628906 C 38.902344 525.441406 38.5625 524.257812 38.050781 523.070312 C 37.542969 521.710938 37.203125 520.355469 36.863281 518.828125 C 36.015625 515.945312 35.167969 513.0625 34.488281 510.179688 C 34.148438 508.824219 33.808594 507.296875 33.46875 505.941406 C 33.132812 504.921875 32.960938 503.90625 32.792969 502.886719 C 32.453125 501.871094 32.28125 500.683594 31.945312 499.667969 C 31.945312 499.328125 31.773438 498.988281 31.773438 498.820312 C 31.433594 497.800781 31.265625 496.613281 31.09375 495.597656 C 30.753906 494.410156 30.585938 493.054688 30.246094 491.867188 C 29.90625 490.679688 29.738281 489.320312 29.398438 488.132812 C 28.890625 485.589844 28.378906 483.21875 28.039062 480.671875 C 27.871094 479.484375 27.53125 478.128906 27.363281 476.941406 C 27.191406 475.925781 27.023438 474.738281 26.851562 473.71875 C 26.515625 471.347656 26.003906 468.800781 25.664062 466.429688 C 25.496094 465.242188 25.324219 464.222656 25.15625 463.035156 C 25.15625 462.695312 24.988281 462.1875 24.988281 461.847656 C 24.648438 459.476562 24.308594 457.101562 24.136719 454.726562 C 23.796875 450.996094 23.460938 447.433594 23.121094 443.703125 C 22.949219 442.175781 22.949219 440.652344 22.78125 439.125 C 22.78125 438.957031 22.78125 438.957031 22.78125 438.785156 C 22.609375 437.429688 22.609375 435.902344 22.441406 434.546875 C 22.273438 430.476562 21.933594 426.238281 21.933594 422.167969 C 21.933594 421.320312 21.933594 420.46875 21.933594 419.621094 C 21.933594 418.4375 21.933594 417.25 21.933594 416.0625 C 21.933594 414.535156 21.933594 413.007812 21.933594 411.484375 C 21.933594 409.957031 21.933594 408.429688 21.933594 406.902344 C 21.933594 405.714844 21.933594 404.53125 21.933594 403.34375 C 21.933594 402.324219 21.933594 401.476562 21.933594 400.460938 C 21.933594 399.101562 21.933594 397.914062 22.101562 396.558594 C 22.101562 395.03125 22.273438 393.335938 22.273438 391.8125 C 22.273438 390.453125 22.441406 389.097656 22.441406 387.742188 C 22.441406 386.894531 22.609375 386.046875 22.609375 385.367188 C 22.609375 384.519531 22.78125 383.839844 22.78125 382.992188 C 22.78125 382.144531 22.949219 381.128906 22.949219 380.277344 C 23.289062 376.378906 23.628906 372.476562 24.136719 368.40625 C 24.308594 367.558594 24.308594 366.882812 24.476562 366.035156 C 24.648438 365.1875 24.648438 364.339844 24.816406 363.488281 C 24.988281 362.640625 24.988281 361.792969 25.15625 360.945312 C 25.324219 359.757812 25.496094 358.402344 25.664062 357.214844 C 26.003906 354.671875 26.34375 352.128906 26.851562 349.585938 C 27.023438 348.398438 27.191406 347.210938 27.363281 346.023438 C 27.363281 346.023438 27.363281 346.023438 27.363281 345.851562 C 27.53125 344.667969 27.703125 343.480469 28.039062 342.121094 C 28.378906 340.425781 28.71875 338.902344 28.890625 337.375 C 29.230469 335.339844 29.738281 333.472656 30.078125 331.609375 C 30.078125 331.269531 30.246094 330.929688 30.246094 330.761719 C 30.417969 329.742188 30.753906 328.554688 30.925781 327.539062 C 31.945312 322.621094 33.132812 317.703125 34.488281 312.953125 C 34.828125 311.765625 35.167969 310.578125 35.507812 309.394531 C 35.847656 308.207031 36.1875 307.019531 36.523438 305.832031 C 37.203125 303.457031 37.882812 301.082031 38.730469 298.707031 C 39.070312 297.523438 39.410156 296.503906 39.75 295.316406 C 39.75 295.148438 39.75 295.148438 39.75 294.976562 C 40.089844 293.789062 40.425781 292.605469 40.9375 291.585938 C 50.269531 263.433594 62.65625 236.8125 77.757812 211.882812 C 77.757812 211.882812 77.757812 211.710938 77.925781 211.710938 C 78.945312 210.015625 79.964844 208.320312 80.980469 206.792969 C 82 205.097656 83.1875 203.402344 84.207031 201.707031 C 85.222656 200.179688 86.242188 198.652344 87.089844 197.296875 C 87.261719 196.957031 87.597656 196.617188 87.769531 196.28125 C 88.785156 194.753906 89.804688 193.226562 90.992188 191.699219 C 92.011719 190.34375 92.859375 188.988281 93.878906 187.632812 C 96.082031 184.410156 98.457031 181.355469 100.835938 178.304688 C 101.34375 177.625 102.023438 176.777344 102.53125 176.097656 C 103.210938 175.25 103.886719 174.402344 104.566406 173.554688 C 107.113281 170.332031 109.828125 167.113281 112.542969 163.890625 C 113.390625 162.871094 114.238281 162.023438 115.085938 161.007812 C 115.9375 159.988281 116.785156 158.972656 117.632812 158.125 C 118.820312 156.765625 120.007812 155.410156 121.195312 154.222656 C 122.214844 153.035156 123.402344 151.847656 124.589844 150.660156 C 125.609375 149.644531 126.457031 148.625 127.472656 147.609375 C 127.644531 147.441406 127.984375 147.101562 128.152344 146.929688 C 129.171875 145.914062 130.019531 144.894531 131.039062 143.878906 C 132.054688 142.859375 133.242188 141.671875 134.261719 140.65625 C 135.28125 139.640625 136.46875 138.453125 137.484375 137.433594 C 138.164062 136.753906 139.011719 135.90625 139.691406 135.230469 C 140.199219 134.722656 140.878906 134.210938 141.386719 133.535156 C 142.238281 132.6875 143.085938 132.007812 143.933594 131.160156 C 146.308594 128.953125 148.515625 126.917969 150.890625 124.714844 C 152.078125 123.699219 153.265625 122.679688 154.285156 121.664062 C 155.132812 120.816406 156.152344 120.136719 157 119.289062 C 157.675781 118.78125 158.1875 118.269531 158.867188 117.761719 C 159.714844 117.085938 160.5625 116.40625 161.410156 115.726562 C 162.769531 114.539062 164.125 113.351562 165.652344 112.335938 C 167.011719 111.316406 168.199219 110.300781 169.554688 109.28125 C 170.574219 108.433594 171.589844 107.757812 172.609375 106.910156 C 173.796875 106.0625 174.816406 105.214844 176.003906 104.363281 C 177.871094 103.007812 179.566406 101.652344 181.433594 100.464844 C 182.453125 99.785156 183.46875 98.9375 184.488281 98.261719 C 185.675781 97.414062 186.863281 96.5625 188.21875 95.714844 C 188.898438 95.207031 189.578125 94.699219 190.425781 94.191406 C 191.785156 93.171875 193.140625 92.324219 194.667969 91.476562 C 196.363281 90.289062 198.0625 89.273438 199.757812 88.253906 C 201.117188 87.40625 202.472656 86.558594 203.832031 85.710938 C 204.847656 85.03125 205.867188 84.523438 206.714844 83.84375 C 208.074219 82.996094 209.429688 82.148438 210.789062 81.300781 C 212.316406 80.453125 213.84375 79.605469 215.199219 78.757812 C 216.726562 77.910156 218.253906 77.0625 219.949219 76.042969 C 220.289062 75.875 220.628906 75.535156 221.140625 75.367188 C 222.664062 74.519531 224.023438 73.671875 225.550781 72.992188 C 227.925781 71.804688 230.300781 70.449219 232.675781 69.261719 C 233.695312 68.753906 234.882812 68.242188 235.902344 67.566406 C 236.578125 67.226562 237.429688 66.886719 238.105469 66.378906 C 239.464844 65.699219 240.992188 65.023438 242.347656 64.34375 C 244.046875 63.496094 245.742188 62.648438 247.609375 61.96875 C 249.816406 60.953125 252.191406 59.933594 254.394531 58.917969 C 255.414062 58.40625 256.601562 58.070312 257.621094 57.558594 C 258.300781 57.21875 259.148438 56.882812 259.824219 56.710938 C 261.351562 56.035156 262.878906 55.355469 264.578125 54.847656 C 266.105469 54.167969 267.800781 53.660156 269.328125 52.980469 C 269.835938 52.8125 270.347656 52.640625 271.023438 52.300781 C 272.722656 51.625 274.25 51.117188 275.945312 50.4375 C 275.945312 50.4375 276.117188 50.4375 276.117188 50.4375 C 277.644531 49.929688 279.339844 49.25 280.867188 48.742188 C 283.582031 47.894531 286.296875 46.875 288.839844 46.027344 C 290.199219 45.519531 291.558594 45.179688 292.914062 44.671875 C 293.253906 44.5 293.59375 44.5 293.933594 44.332031 C 295.460938 43.824219 297.15625 43.316406 298.683594 42.976562 C 299.023438 42.804688 299.53125 42.804688 299.871094 42.636719 C 301.566406 42.128906 303.433594 41.617188 305.132812 41.109375 C 306.828125 40.601562 308.523438 40.261719 310.390625 39.753906 C 311.410156 39.582031 312.257812 39.246094 313.277344 39.074219 C 314.292969 38.734375 315.480469 38.566406 316.5 38.226562 C 317.007812 38.058594 317.519531 37.886719 318.027344 37.886719 C 319.722656 37.550781 321.25 37.210938 322.949219 36.699219 C 323.289062 36.699219 323.625 36.53125 323.796875 36.53125 C 325.664062 36.191406 327.699219 35.683594 329.566406 35.34375 C 329.734375 35.34375 329.734375 35.34375 329.90625 35.34375 C 331.941406 35.003906 333.808594 34.496094 335.84375 34.15625 C 339.578125 33.480469 343.480469 32.800781 347.210938 32.292969 C 347.382812 32.292969 347.382812 32.292969 347.550781 32.292969 C 348.230469 32.121094 348.910156 32.121094 349.585938 31.953125 C 351.113281 31.78125 352.640625 31.445312 354.167969 31.273438 C 354.507812 31.273438 354.679688 31.273438 355.019531 31.105469 C 356.882812 30.765625 358.75 30.597656 360.785156 30.425781 C 360.785156 30.425781 360.957031 30.425781 360.957031 30.425781 C 362.992188 30.257812 365.027344 29.917969 367.234375 29.746094 C 367.234375 29.746094 367.40625 29.746094 367.40625 29.746094 C 369.269531 29.578125 371.136719 29.410156 373.003906 29.238281 C 373.34375 29.238281 373.851562 29.238281 374.191406 29.070312 C 376.058594 28.898438 378.09375 28.730469 379.960938 28.5625 C 381.488281 28.390625 383.015625 28.390625 384.371094 28.222656 C 384.882812 28.222656 385.390625 28.222656 385.898438 28.222656 C 386.917969 28.222656 387.9375 28.050781 389.125 28.050781 C 389.972656 28.050781 390.988281 27.882812 391.839844 27.882812 C 392.347656 27.882812 392.855469 27.882812 393.367188 27.882812 C 395.0625 27.882812 396.929688 27.714844 398.625 27.714844 C 398.796875 27.714844 398.964844 27.714844 399.304688 27.714844 C 401.339844 27.714844 403.546875 27.714844 405.582031 27.714844 C 616.667969 28.222656 788.386719 199.839844 788.386719 411.484375 Z M 788.386719 411.484375 " fill-opacity="1" fill-rule="nonzero"/></g><g clip-path="url(#e41e6b6901)"><path fill="#d88500" d="M 40.425781 291.585938 L 197.382812 186.273438 L 197.382812 734.203125 C 193.140625 731.488281 189.070312 728.773438 184.996094 725.890625 C 183.976562 725.214844 182.960938 724.535156 181.941406 723.6875 C 180.925781 723.007812 179.90625 722.160156 178.886719 721.484375 C 177.871094 720.804688 176.851562 719.957031 175.832031 719.277344 C 170.066406 715.039062 164.464844 710.628906 159.035156 706.050781 C 158.355469 705.542969 157.675781 705.035156 157.167969 704.355469 C 154.792969 702.320312 152.246094 700.117188 149.871094 698.082031 C 148.855469 697.234375 148.007812 696.382812 147.15625 695.535156 C 146.308594 694.6875 145.460938 694.011719 144.613281 693.164062 C 140.878906 689.769531 137.316406 686.210938 133.753906 682.648438 C 132.902344 681.800781 132.054688 680.953125 131.207031 679.933594 C 129.511719 678.238281 127.8125 676.375 126.117188 674.507812 C 125.269531 673.660156 124.421875 672.644531 123.570312 671.792969 C 122.554688 670.777344 121.707031 669.757812 120.855469 668.742188 C 120.179688 667.894531 119.328125 667.046875 118.652344 666.199219 C 118.140625 665.691406 117.632812 665.011719 117.125 664.503906 C 116.445312 663.824219 115.765625 662.976562 115.085938 662.128906 C 114.578125 661.621094 114.238281 661.109375 113.730469 660.601562 C 112.882812 659.585938 112.035156 658.738281 111.355469 657.71875 C 110.507812 656.703125 109.828125 655.855469 108.980469 654.835938 C 108.128906 653.820312 107.453125 652.972656 106.601562 651.953125 C 105.753906 650.9375 105.078125 650.089844 104.226562 649.070312 C 103.378906 648.054688 102.699219 647.035156 101.851562 646.1875 C 100.324219 644.152344 98.796875 642.285156 97.269531 640.253906 C 96.59375 639.402344 95.914062 638.554688 95.40625 637.707031 C 92.351562 633.636719 89.464844 629.398438 86.582031 625.160156 C 86.070312 624.3125 85.394531 623.464844 84.882812 622.613281 C 78.605469 613.117188 72.667969 603.28125 67.238281 593.109375 C 66.050781 591.074219 65.03125 588.867188 63.84375 586.664062 C 62.148438 583.273438 60.449219 579.878906 58.753906 576.488281 C 58.414062 575.808594 58.074219 575.132812 57.734375 574.453125 C 56.886719 572.757812 56.207031 571.230469 55.53125 569.535156 C 54.511719 567.332031 53.664062 565.296875 52.644531 563.089844 C 51.117188 559.53125 49.589844 555.800781 48.234375 552.238281 C 48.234375 552.066406 48.0625 551.898438 48.0625 551.898438 C 47.554688 550.710938 47.046875 549.355469 46.707031 548.167969 C 46.195312 546.8125 45.6875 545.453125 45.179688 544.097656 C 44.667969 542.742188 44.160156 541.382812 43.652344 540.027344 C 42.292969 536.128906 40.9375 532.226562 39.75 528.328125 C 39.578125 527.816406 39.410156 527.308594 39.238281 526.800781 C 38.902344 525.613281 38.5625 524.425781 38.050781 523.238281 C 37.542969 521.882812 37.203125 520.527344 36.863281 519 C 36.015625 516.117188 35.167969 513.234375 34.488281 510.351562 C 34.148438 508.992188 33.808594 507.46875 33.46875 506.109375 C 33.132812 505.09375 32.960938 504.074219 32.792969 503.058594 C 32.453125 502.039062 32.28125 500.855469 31.945312 499.835938 C 31.945312 499.496094 31.773438 499.15625 31.773438 498.988281 C 31.433594 497.96875 31.265625 496.785156 31.09375 495.765625 C 30.753906 494.578125 30.585938 493.222656 30.246094 492.035156 C 29.90625 490.847656 29.738281 489.492188 29.398438 488.304688 C 28.890625 485.761719 28.378906 483.386719 28.039062 480.84375 C 27.871094 479.65625 27.53125 478.300781 27.363281 477.113281 C 27.191406 476.09375 27.023438 474.90625 26.851562 473.890625 C 26.515625 471.515625 26.003906 468.972656 25.664062 466.597656 C 25.496094 465.410156 25.324219 464.394531 25.15625 463.207031 C 25.15625 462.867188 24.988281 462.359375 24.988281 462.019531 C 24.648438 459.644531 24.308594 457.269531 24.136719 454.894531 C 23.796875 451.164062 23.460938 447.605469 23.121094 443.875 C 22.949219 442.347656 22.949219 440.820312 22.78125 439.292969 C 22.78125 439.125 22.78125 439.125 22.78125 438.957031 C 22.609375 437.597656 22.609375 436.074219 22.441406 434.714844 C 22.273438 430.644531 21.933594 426.40625 21.933594 422.335938 C 21.933594 421.488281 21.933594 420.640625 21.933594 419.792969 C 21.933594 418.605469 21.933594 417.417969 21.933594 416.230469 C 21.933594 414.703125 21.933594 413.179688 21.933594 411.652344 C 21.933594 410.125 21.933594 408.601562 21.933594 407.074219 C 21.933594 405.886719 21.933594 404.699219 21.933594 403.511719 C 21.933594 402.496094 21.933594 401.648438 21.933594 400.628906 C 21.933594 399.273438 21.933594 398.085938 22.101562 396.730469 C 22.101562 395.203125 22.273438 393.507812 22.273438 391.980469 C 22.273438 390.625 22.441406 389.265625 22.441406 387.910156 C 22.441406 387.0625 22.609375 386.214844 22.609375 385.535156 C 22.609375 384.6875 22.78125 384.011719 22.78125 383.160156 C 22.78125 382.3125 22.949219 381.296875 22.949219 380.449219 C 23.289062 376.546875 23.628906 372.648438 24.136719 368.578125 C 24.308594 367.730469 24.308594 367.050781 24.476562 366.203125 C 24.648438 365.355469 24.648438 364.507812 24.816406 363.660156 C 24.988281 362.8125 24.988281 361.964844 25.15625 361.117188 C 25.324219 359.929688 25.496094 358.574219 25.664062 357.386719 C 26.003906 354.839844 26.34375 352.296875 26.851562 349.753906 C 27.023438 348.566406 27.191406 347.378906 27.363281 346.191406 C 27.363281 346.191406 27.363281 346.191406 27.363281 346.023438 C 27.53125 344.835938 27.703125 343.648438 28.039062 342.292969 C 28.378906 340.597656 28.71875 339.070312 28.890625 337.542969 C 29.230469 335.507812 29.738281 333.644531 30.078125 331.777344 C 30.078125 331.4375 30.246094 331.101562 30.246094 330.929688 C 30.417969 329.914062 30.753906 328.726562 30.925781 327.707031 C 31.945312 322.789062 33.132812 317.871094 34.488281 313.125 C 34.828125 311.9375 35.167969 310.75 35.507812 309.5625 C 35.847656 308.375 36.1875 307.1875 36.523438 306 C 37.203125 303.625 37.882812 301.253906 38.730469 298.878906 C 39.070312 297.691406 39.410156 296.675781 39.75 295.488281 C 39.75 295.316406 39.75 295.316406 39.75 295.148438 C 39.75 293.789062 40.089844 292.605469 40.425781 291.585938 Z M 506.035156 435.5625 L 391.160156 598.875 L 280.527344 446.078125 L 280.527344 831.710938 L 310.5625 783.210938 C 312.257812 783.71875 313.953125 784.058594 315.820312 784.566406 C 317.519531 784.90625 319.214844 785.417969 320.910156 785.753906 C 321.929688 785.925781 322.777344 786.09375 323.796875 786.433594 C 326.511719 787.113281 329.394531 787.621094 332.109375 788.128906 C 332.789062 788.300781 333.636719 788.46875 334.316406 788.636719 C 335.675781 788.808594 337.03125 789.148438 338.390625 789.316406 L 591.722656 598.875 L 506.035156 598.875 Z M 591.722656 185.765625 L 324.304688 366.035156 L 392.347656 462.359375 Z M 591.722656 185.765625 " fill-opacity="1" fill-rule="nonzero"/></g></svg>